<svg xmlns="http://www.w3.org/2000/svg" width="253.724" height="434.402" viewBox="-7.157 -8.354 253.724 434.402"><path fill="#462701" d="M1.273 0h236.864v417.695H1.273Zm0 0"/><path fill="#F6E9B9" d="M4.328 3.055H235.59v411.582H4.328Zm0 0"/><path fill="#FFF" stroke="#FFF" stroke-width=".005" d="M4.328 3.055H235.59v411.582H4.328Zm0 0"/><path fill="#462701" d="M23.176 129.383c0-5.602 3.058-11.207 2.039-17.32-2.04-1.016-4.074-2.036-5.094-4.075 0-2.547.508-5.601-1.527-7.64 7.129-6.114 7.129-15.282 12.222-21.903 0-4.586 4.079-6.62 4.586-10.699-1.02-1.527-3.566-1.016-4.074-2.547 0-4.582 4.074-7.129 3.055-12.222l5.605-12.227c10.188-7.129 12.735-20.375 24.957-23.43 3.567-3.566 8.153-4.078 12.227-6.113 4.586-3.566 9.168-9.168 10.187-8.152h148.23v411.582H4.84V302.574c2.036-.512 3.567-1.02 5.602-1.527 13.247-5.094 29.036-4.586 40.243-14.266-2.547-15.281-6.114-31.582-3.567-47.879-1.02-9.68 1.528-21.906-2.035-31.074v-.508c-2.039-7.64-6.113-14.265-9.172-21.394-2.547-5.606-4.582-11.719-4.074-18.34 2.547 1.02 3.059 4.074 4.074 6.621 2.04 3.566 6.113 6.625 11.207 5.094 1.528-1.016 3.567-2.035 4.074-3.563 0-3.058-7.129-4.078-1.527-6.625 1.527 0 2.547 1.02 4.074.512 1.532-1.527 2.04-3.566 1.532-5.605-.512-3.563-2.04-7.13-1.02-10.696 0-2.547 2.035-4.586 3.566-6.62 1.016-1.528 1.528-3.06.508-5.095-3.566-3.058-5.094-7.64-7.133-11.718-2.546-5.602-5.093-10.696-11.203-13.75-3.058-.512-5.093 2.035-7.64 3.562-1.532 3.059-3.059 6.625-4.078 10.188-.508 2.039-1.016 4.586-1.528 6.625-2.039 1.02-2.547-2.04-3.566-3.059.512-1.527.512-2.547 0-4.074"/><path fill="#FFF" d="M193.313 206.809c0 .511-.512 1.527-.512 2.039-1.528 2.035-2.547 4.074-5.094 4.582.512-2.035.512-4.075 1.02-6.621 0-2.547.507-5.094.507-7.13l4.078-4.077c2.547 3.058 1.528 7.64 0 11.207m-35.66 0c1.532.511 3.567 1.02 5.094 1.527 1.02.512 1.531 1.02 2.04 1.531 0 1.016 0 2.035-1.02 2.035-6.621 0-12.735-2.547-18.336-4.582-.512-.511-1.02-.511-1.528-1.02h-9.68c4.075.509 7.641 2.036 10.188 4.583-2.547 4.586-6.62 10.187-3.055 15.281 3.055 3.059 8.149 4.078 9.676 8.66.512 3.567-1.02 6.113-2.547 8.153-5.601 5.093-13.754 6.113-20.882 4.074-8.153-2.04-15.793-9.168-17.829-17.32-1.02-7.13 2.547-12.735 3.563-19.356-.508-1.527-1.016-3.055-1.016-4.586-.511-2.547-1.02-5.601-3.058-7.64 0-2.036 2.039-2.036 3.058-2.547 7.64 1.53 12.223 9.171 19.864 10.187h11.718c-1.53-.508-3.058-1.016-4.078-2.547 6.625 0 12.227 2.04 17.828 3.567m-66.218-77.934c-1.528 6.113-2.036 11.715-3.055 17.828-.512 4.582-1.527 9.676-2.04 14.262-.507 1.02-1.019 2.039-1.019 3.055-1.527 2.546-3.054 5.093-3.562 8.152 5.094 2.547 9.168-1.02 13.75-1.527l1.531 1.527c0 4.582-2.039 8.66-3.059 13.242-1.02 3.566-1.02 7.133 1.02 10.7 1.02.507 2.547.507 3.566-1.02 1.02-3.567 2.547-6.621 3.567-9.68 2.035-5.094 4.074-9.676 6.11-14.77 1.53-2.546 3.058-4.585 5.093-7.132 4.078-4.586 9.68-8.66 14.773-11.715 4.075-.512 8.153-3.567 12.227-1.527-2.04 5.093-7.64 8.656-11.719 12.734 0 .508-.508.508-.508 1.016-5.093 6.113-10.187 13.246-6.62 21.394 6.62-4.074 15.28-5.601 23.429-4.074 5.094-1.02 10.7.508 15.281 1.527l1.531-1.02c-2.039-1.527-4.585-2.546-6.113-5.093-1.02-4.074 3.567-6.621 5.602-10.188 1.02-2.035-2.547-1.015-3.055-2.035-.512 0-.512 0-1.02-.511-1.527-.508-3.566-.508-5.093 0h-6.113c-1.528-1.016-3.055-3.055-4.075-4.583 6.621-3.058 15.79-3.566 22.922-1.019 3.055-1.02 3.567-6.113 7.133-5.094 1.016-2.039.508-4.586.508-6.62-1.528-5.606-.508-11.208 0-16.813 1.02-7.13 1.527-14.262-2.547-20.375-2.04-3.563-7.133-2.036-9.168 1.02-2.547 7.132-7.64 14.773-14.262 19.355-2.547 2.039-5.605 3.566-8.66 4.586.508 2.039 1.527 4.074 1.02 6.113-5.606 1.02-11.72 1.02-17.832 2.039-6.11-5.606-15.79-4.078-22.41-8.66 4.074-4.078 10.187-4.078 15.788-3.567 2.547 1.528 6.622 2.04 9.168.508v-.508c-.507-.511-2.035-.511-2.546-1.02-3.563-5.093-10.188-1.527-15.282-1.019-4.582 2.547-9.675-3.054-14.261.512 0 0 0 .508 0 0"/><path fill="#FFF" d="M171.406 200.695c1.02 1.532-1.02 3.059-2.035 3.567-12.226 3.058-21.394-5.602-33.11-3.567-2.546 1.02-5.605 2.04-8.66 1.02-1.53-2.035-5.093-2.547-4.585-5.094 4.586-2.547 8.66-7.129 13.246-8.66 13.75-.508 25.976 2.547 35.144 12.734"/><path fill="#462701" d="M43.043 164.02c.508 1.02 1.02 2.546 2.547 1.53v-2.038c0-2.04-2.547-2.04-4.074-2.04l.507 1.02c.512 0 .512 1.02 1.02 1.528"/><path fill="#FFF" d="M145.43 164.02q.76 0 0 0c2.547.511 4.074.511 6.113 0Zm0 0"/><path fill="#462701" d="M28.781 146.703v2.035l.508-2.035 6.621-17.32v-.508l2.547-3.059c2.547-1.527 4.078 2.04 6.113 1.02l-.508-.508c-2.039-2.039-4.074-6.113-7.64-5.094-3.567 1.528-5.094 5.094-6.113 8.149-.508 2.039-1.02 4.074-1.528 6.113 0 3.566-.511 7.64 0 11.207m3.567 0c-.512 4.582 0 9.168 3.562 11.715 3.059 2.547 3.567-1.527 4.078-3.055 1.016-4.586 6.11-5.605 8.657-8.66 1.02-1.02 1.53-2.547 1.02-4.586-2.548-2.035-5.602-2.547-8.661-1.527-3.055 1.02-6.11 2.039-8.656 4.074Zm0 0"/><path fill="#FFF" d="M175.48 45.844c2.547 1.02 5.094 2.547 5.606 5.605 1.527 8.149-2.04 16.297-.512 24.45 4.078 5.093 7.133 9.68 12.227 13.753l1.02 2.035c-5.602 1.532-11.208 5.094-16.301 8.153-6.114-1.528-12.735-4.074-18.848-1.02-2.035.508-3.567 2.547-6.113 1.528-3.563-5.094-10.696-2.547-15.79-2.035-7.132 2.035-14.261 2.546-19.867 7.64l-16.808 5.602c-2.04 0-4.074-1.528-4.074-3.567-1.528-3.054.507-6.113.507-8.66-2.035-8.148-7.129-15.281-5.601-24.957 0-4.078-1.528-8.66 1.527-12.226 8.149-7.133 12.734-21.903 25.977-18.848 6.113 2.039 10.187-2.547 16.3-2.547 14.266-.508 27 4.074 40.75 5.094m-40.75 72.844c.512 1.527-1.527 2.035-2.035 2.035-4.078 1.02-9.172 0-12.734 2.039-3.566 1.02-6.625 0-9.172-2.547.512-2.547 4.078-1.02 5.606-2.04 5.601-1.019 12.734-2.034 18.335.513"/><path fill="#462701" d="M3.313 412.602h233.296v3.054H3.313Zm0 0"/><path fill="#462701" d="M232.023 1.527h5.606v414.13h-5.606ZM3.313 304.102h3.054v111.046H3.313Zm0 0"/><path fill="#462701" d="M86.34 1.527h148.742v4.586H86.34Zm0 0"/><path fill="#FFF" d="M33.875 326.516v-7.133c0-4.074-.512-6.621-5.094-6.621-4.586 0-4.586 3.566-4.586 6.113v30.05c0 3.567.508 6.626 5.094 6.626 5.094 0 5.094-3.567 5.094-7.133v-7.133H44.57v8.152c0 4.583 0 14.262-15.28 14.262-3.056 0-7.642-.508-11.208-2.547-4.582-3.054-4.582-7.132-4.582-10.695v-30.566c0-4.582 0-7.641 3.055-10.696 4.074-4.586 10.699-4.586 12.734-4.586 15.281 0 15.281 9.172 15.281 13.246v8.66Zm39.73-7.133c0-3.055 0-7.133-5.093-7.133-5.602 0-5.602 4.078-5.602 7.64v28.528c0 3.055 0 7.133 5.094 7.133s5.094-4.078 5.094-6.625v-29.543Zm10.7 30.562q0 6.114-3.059 9.168c-3.566 3.567-8.66 4.078-12.226 4.078-12.735 0-15.79-6.113-15.79-13.246v-31.582c0-2.547 0-6.62 3.055-9.675 2.04-2.547 6.625-4.079 12.735-4.079 5.093 0 9.171 1.532 11.718 3.567 3.055 2.547 3.567 5.094 3.567 10.699Zm10.187-44.316h27.504v8.66H104.68v14.262h16.297v8.66H104.68v25.469h-10.7v-57.051m34.13 0h27.507v8.66h-17.32v14.262h16.3v8.66h-16.3v25.469h-10.695v-57.051m33.617 0h27.508v8.66h-16.809v13.242h15.789v8.66h-15.789v17.32h17.828v8.66H161.73V305.63m36.676-.001h27.504v8.66h-16.808v13.242h15.789v8.66H209.1v17.32h17.829v8.66h-28.016V305.63M31.836 369.813v6.62h-9.68v8.66h8.66v6.622h-8.66v16.3h-9.168v-38.202Zm27.508 0v6.62H49.156v8.66h10.188v7.134H49.156v9.168h10.696v6.62H39.477v-38.714h19.867m9.168.512h9.168v31.582h9.68v6.62H68.511Zm26.488 0h9.168v31.582h9.68v6.62H95Zm34.129 28.523c0 1.531 0 3.059 3.055 3.059 2.546 0 3.058-1.02 3.058-3.06v-19.862c0-2.547-1.02-3.059-3.566-3.059q-3.06 0-3.059 3.059v19.863Zm-9.168-17.828c0-3.055.508-6.113 2.547-8.66 3.055-3.055 7.129-3.055 10.187-3.055 12.223 0 12.223 8.148 12.223 12.227v14.77c0 3.058 0 6.624-3.055 9.679-2.547 2.547-7.133 3.054-9.68 3.054-12.222 0-12.222-7.64-12.222-12.222Zm32.598-10.695h8.66l2.547 29.542h.511l4.582-29.543h10.7l5.093 29.543h.508l2.04-29.543h9.167l-4.586 38.711H179.56l-5.094-30.05-5.094 30.05h-12.226Zm56.035 19.863c-4.078-3.055-5.094-4.074-5.094-9.168 0-7.64 2.547-11.207 12.223-11.207 10.187 0 11.207 4.078 10.699 12.226h-8.66v-2.547c0-2.039 0-3.054-2.547-3.054s-2.547 2.035-2.547 3.562c0 2.04 0 3.059 1.527 4.078l8.149 5.602c3.566 2.547 5.094 3.566 5.094 9.68 0 4.074-1.016 6.113-2.547 7.64-1.528 1.528-4.075 3.055-9.676 3.055-4.074 0-7.64-.508-9.68-2.547-2.547-2.547-2.547-5.601-2.547-10.695h9.168v3.054c0 1.02 0 3.06 2.547 3.06 3.059 0 3.059-2.04 3.059-2.548 0-3.058 0-3.058-3.567-5.605Zm0 0"/></svg>