<svg xmlns="http://www.w3.org/2000/svg" width="2452.6" height="471.9"><path fill="#2B5EA9" d="m1093.7 110.602-83 71.597-56.302-65.699 84.204-69.3Zm333.902-8L1549.3 93.8l20.199 337-121.3 8.5Zm-547.5 187.296A130 130 0 0 0 882.5 274.7l19.102-122.2-114-18v.8l-1.204-.198L782.7 164.8l-15.8 102.3c-2.7 17.2-18.7 28.899-35.899 26.399-17.2-2.7-28.898-18.7-26.398-35.898l10.5-68.602 10.097-63.602h-.898l.097-.898-34.296-5.102-1.204.403-77.699-12.2-18 114.598c-19.898 79 27.903 159.102 106.903 179 79 19.903 159.097-27.898 179-106.898.097-.403.199-.801.296-1.301h.204Zm0 0"/><path fill="#2B5EA9" d="m1656.602 150.3-35.903 11.4-2.597.902-74.801 24.097 33.5 108.903c3.8 12.699 8.597 25.097 14.5 36.898 36.398 72.8 125 102.398 197.8 66 61.598-30.8 93.7-100.102 77.297-166.898h.204l-1-3.102c-1.301-5-2.903-9.898-4.704-14.7L1823 96l-109.898 35.3.199.7-1.2.398 10.098 28.204L1754.102 259c5.199 16.5-3.801 34.102-20.204 39.602-16.5 5.199-34.097-3.801-39.597-20.204l-18.7-65.898ZM1017 372.7c-28.398 1-42.2-23.9-42.2-23.9l193.5-50.402c-6.5-83.296-79.198-145.597-162.6-139.199-83.4 6.403-145.598 79.2-139.2 162.602 6.398 83.398 79.2 145.597 162.602 139.199 37.296-2.898 72.097-19.5 97.898-46.5l-66.602-62.3c-10.898 12.6-26.699 20-43.398 20.5m-14.398-116.9c36.097-10.5 62.699 19.302 62.699 19.302L958.5 302.398s8-36 44.102-46.597M459 146.103c-83.602 0-151.3 67.796-151.3 151.296S375.397 448.801 459 448.801 610.3 381 610.3 297.5c.098-83.602-67.698-151.398-151.3-151.398m0 188c-20.2-.102-36.602-16.5-36.5-36.801.102-20.2 16.5-36.602 36.8-36.5 20.2.097 36.5 16.5 36.5 36.699 0 20.2-16.5 36.602-36.8 36.602m0 0"/><path fill="#2B5EA9" d="m2019.898 166.898 26.102-87-109-31.296-66.8 217.898h.3c-28.102 78.398 12.602 164.602 91 192.7 78.398 28.1 164.602-12.598 192.7-91 28.1-78.4-12.598-164.598-91-192.7a155.7 155.7 0 0 0-43.302-8.602M2011.2 356c-20.199 0-36.699-16.398-36.699-36.7 0-20.198 16.398-36.698 36.7-36.698 20.3 0 36.698 16.398 36.698 36.699S2031.5 356 2011.2 356M319.9 276.398V276c-1.297-6.602-3-13.2-5.098-19.602L264.398 61.301 131.5 96.3l54.102 204c5.796 14.898-1.5 31.699-16.5 37.597-3.301 1.301-6.903 2-10.403 2-13.8 0-25.699-9.796-28.398-23.296L0 351.3c24.2 87.5 114.8 138.8 202.3 114.597C284.899 443 336.103 360.5 319.899 276.398m1042.402-1.796c-17.903 27.097-54.403 34.5-81.5 16.597-27.102-17.898-34.5-54.398-16.602-81.5 16.403-24.8 48.801-33.398 75.403-20.097l58.5-118.403c-94.602-46.8-209.204-8.097-256 86.5-46.801 94.602-8.102 209.2 86.5 256C1315 456.5 1419.8 428.102 1472.898 347.602ZM2361.898 356c0 45.95-37.25 83.2-83.199 83.2S2195.5 401.95 2195.5 356s37.25-83.2 83.2-83.2c45.948 0 83.198 37.25 83.198 83.2m-67.5-356 158.204 44.7-84.5 229.402-125.403-33.704Zm0 0"/></svg>