<svg xmlns="http://www.w3.org/2000/svg" width="194.709" height="54.23" viewBox="-0.719 69.945 194.709 54.23"><path fill="#D42A44" fill-rule="evenodd" d="M182.504 120.316c4.238 0 7.676-3.472 7.676-7.754v-31.01c0-4.285-3.438-7.754-7.676-7.754H10.774c-4.243 0-7.68 3.469-7.68 7.754v31.011c0 4.282 3.437 7.754 7.68 7.754z"/><path fill="#FFF" fill-rule="evenodd" d="M43.73 80.594c.72-.406 5.34-.375 5.891-.074 2.293 1.273-3.527 6.94-3.527 10.113 0 1.738 3.465 9.851 5.277 14.226.238.582 1.211 2.606 1.856 4.004.535 1.172.421 1.52-.352 1.836-.398.164-5.61.29-6.121-.047-1.2-.789-.465-4.14-1.64-8.086-1.15-3.828-2.419-7.617-3.391-8.113-.852-.437-2.192.746-3.918 1.582-1.516.735-2.832.797-3.153 1.711-1.3 3.692 3.653 12.3 1.399 12.977-.27.078-5.262-.032-5.625-.028-1.985.016-.121-6.336-.336-13.93-.215-7.765-1.508-14.081-1.45-14.89.075-.992.712-1.324 1.118-1.383 1.32-.183 3.351-.215 4.61-.015.374.058 1.112.578.984 1.421-.106.657-.551 2.168-.954 5.192-.39 2.976-.441 4.258-.308 5.281.367 2.8 1.578 2.453 3.62 1.09 8.04-5.367 4.517-12.02 6.02-12.867m23.934 10.379c.61 1.015.52 2.933.012 3.843-.906 1.618-1.32 2.895-1.367 3.782-.09 1.488-.223 1.422-.934 1.5-.555.066-2.164-.489-1.793-2.887.281-1.832 1.07-4.047-.695-3.64-2.016.464-2.282 1.937-2.297 6.226-.031 7.336 2.37 9.77.836 10.77-.66.433-4.004.48-4.77.003-1.176-.73.465-3.078.047-10.699-.273-4.945-1.437-8.41-.203-9.11 1.398-.784 4.035-.073 4.469-.218.316-.113 6.074-.594 6.695.43m19.16 8.941c.133 5.117 1.727 10.36.637 10.715-.676.223-2.5.25-3.781.16-.657-.047-1.27-1.34-1.633-1.32-.793.047-.95.5-1.934.965-.672.32-1.925.363-4.133.39-4.347.055-6.16-.738-5.726-4.14 0 0 .453-4.543.535-5.598.371-4.848-1.605-9.684-.781-10.445.574-.54 4.644-1.305 5.453-.786.906.582-.934 4.707-.59 13.13.137 3.413 1.387 5.535 3.621 5.535 3.149 0 4.793-2.747 4.535-6.278-.402-5.656-2.41-11.07-1.242-11.758.973-.574 4.328-.945 5.117-.535.887.461-.242 3.7-.078 9.965m5.153.52c-.157-7.41-1.696-8.563-.817-9.547.82-.918 4.637-1.168 5.145-.5.656.863-.344 1.855-.29 8.867.063 8.375 2.41 9.902.88 11.219-.602.52-3.918.441-4.895.035-2.262-.934.16-1.367-.023-10.074m4.437-16.567c-.016 1.242-.7 2.738-2.691 2.781-1.77.036-2.785-.574-2.79-2.441-.011-2.05.215-2.695 2.54-3.121 2.867-.52 2.96 1.629 2.941 2.781m8.352 26.895c-4.758-.063-4.348-3.41-4.047-9.707.183-3.97-3.75-11.176 3.55-11.606 5.645-.328 6.223.594 8.329 2.438 0 0-.075-2.676-.5-4.04-.934-2.952-1.836-6.367-1.176-7.093.46-.508 4.332-1.656 5.113-1.344.418.168.867.348.703 1.348-.539 3.273-.43 11.707-.367 16.351.121 8.547 2.152 11.313.66 12.993-.91 1.023-4.219.656-4.219.656s-5.93.031-8.046.004m4.277-2.723c2.262 0 4.074-1.613 3.39-7.422-.378-3.238.364-9.187-4.199-8.972-2.195.109-4.382-.016-3.949 8.226.36 6.852 1.625 8.168 4.758 8.168m13.5.305c-1.106-3.25-2.95-6.746-3.703-12.953-.356-2.946-1.762-4.118-.621-5.188.27-.25 5.066-.254 5.414.008.515.383.73 1.219.222 3.414-1.09 4.754.348 12.754 2.98 12.754 2.716 0 4.278-7.02 2.68-12.91-.613-2.262-.468-2.985.051-3.29.297-.175 4.414-.464 5.371-.07 1.508.625-.355 3.102-.562 5.63-.613 7.378-2.121 9.019-2.836 12.222-.41 1.855-.547 2.746-2.457 2.832-1.68.074-2.66-.012-4.898 0-1.313.004-1.18-1.094-1.641-2.45m15.879-18.187c.789-.285 9.973-.27 11.898-.27 3.535 0 2.5 2.009 2.313 5.747 0 0 .332 9.32.746 11.207.324 1.457.23 2.71-.36 3.36-.738.8-5.628.593-7.48.593-4.242 0-6.726.367-7.945-1.066-1.246-1.461-.219-4.012-.41-6.34-.274-3.41-1.094-4.461.64-5.711 2.246-1.621 10.758.574 10.684-3.387-.016-.894-.965-2.07-3.008-1.945-3.457.21-3.297 1.812-6.59 2.047-1.703.12-1.687-3.805-.488-4.235m6.695 18.367c2.824.032 4.028-2.398 4.059-5.918.008-1.195-.035-3.273-1.113-4.074-.508-.379-2.286.313-2.852.305-4.406-.031-4.441 2.75-4.43 4.516.031 4.113 2.57 5.152 4.336 5.171m12.59-25.257c.652-1.118 4.227-2.559 4.93-1.93.96.871.215 4.012.215 4.95 0 .964-.543 3.444 1.66 3.605 1.293.097 1.586.78 1.586 1.125 0 2.484-3.461.84-3.461 3.726 0 3.945-.121 9.195.992 12.07.562 1.45.531 1.942.531 2.438s-.168 1.473-1.629 1.504c-1.46.031-3.363.004-3.363.004-.68-.028-1.738.05-1.727-1.598.008-1.14.196-1.32.485-2.312.699-2.414.746-7.317.746-10.922 0-2.02.383-2.77-1.73-2.766-2.555 0-2.087-1.34-2.07-1.59.124-2.113 3.023-1.16 3.304-3.11.293-2.062-1.184-3.968-.469-5.194M7.48 78.84a.656.656 0 0 0 .657-.66.66.66 0 1 0-.656.66m5.949 5.32c-.051.067-.117.11-.293.203-.434.235-2.317-.636-3.715-.015-1.399.62-1.8 2.007-1.8 3.261 0 1.293 1.26 2.743 2.75 2.739.437 0 .972-.215.98-.871.003-.786-.5-.438-.5-1.274 0-.625.816-.808.824-1.46.004-.516-.172-.684-.637-.684-.816 0-.883 1.293-1.523.836-.86-.602.527-1.864 1.894-1.864.902 0 1.992.961 1.992 2.547 0 1.805-.996 3.516-3.109 3.516-2.363-.004-3.637-2.207-3.637-3.887 0-1.598.977-2.375.996-3.355.016-.965-.468-.754-.53-1.68-.075-1.086.355-1.492.835-1.758.383-.21.906-.246 1.219-.527.308-.278.308-.832.52-1.211.269-.48.679-.91 1.761-.84.926.062.715.55 1.68.527.976-.015 1.758-.992 3.355-.992 1.68 0 3.883 1.274 3.887 3.637.004 2.113-1.711 3.105-3.512 3.105-1.594 0-2.55-1.086-2.55-1.988 0-1.367 1.261-2.75 1.867-1.895.449.641-.84.711-.84 1.524 0 .465.172.64.683.637.653-.004.84-.825 1.461-.825.84 0 .485.504 1.274.496.656-.003.87-.539.87-.976 0-1.488-1.445-2.754-2.734-2.754-1.257 0-2.644.406-3.265 1.805-.621 1.398.25 3.277.015 3.715-.093.18-.14.246-.203.293Zm-3.008-2.8c.371-.38.762-.977.762-.977.218-.332.25-.649 0-.895-.243-.246-.668-.261-.887 0-.223.266-.375.672-.727 1.024-.351.351-.77.515-1.035.734-.258.223-.242.649 0 .89.25.247.606.2.899 0 0 0 .632-.417.988-.777M7.45 115.281c.362 0 .655.297.655.66a.66.66 0 0 1-.656.664.663.663 0 0 1 0-1.324m5.965-5.304c.063.05.11.117.203.293.235.433-.637 2.316-.015 3.714.62 1.399 2.007 1.801 3.265 1.801 1.29 0 2.735-1.258 2.735-2.75 0-.437-.215-.972-.872-.976-.789-.004-.433.496-1.273.496-.621 0-.809-.82-1.46-.825-.513-.003-.684.172-.684.637 0 .817 1.289.883.84 1.524-.606.859-1.868-.528-1.868-1.899 0-.898.957-1.988 2.55-1.988 1.802 0 3.517.996 3.513 3.11-.004 2.366-2.207 3.636-3.887 3.636-1.598 0-2.375-.973-3.356-.996-.964-.016-.753.469-1.68.531-1.081.074-1.491-.355-1.76-.836-.212-.383-.212-.937-.52-1.219-.313-.277-.836-.308-1.22-.52-.48-.269-.91-.675-.831-1.76.058-.927.543-.716.527-1.68-.02-.98-.996-1.758-.996-3.36 0-1.676 1.273-3.879 3.637-3.883 2.113-.004 3.11 1.711 3.11 3.512 0 1.594-1.09 2.55-1.99 2.55-1.37 0-2.757-1.26-1.898-1.866.641-.45.707.84 1.524.84.465 0 .64-.168.637-.684-.004-.649-.825-.84-.825-1.461 0-.84.504-.484.496-1.273-.004-.657-.539-.868-.976-.872-1.488 0-2.75 1.446-2.75 2.735 0 1.258.402 2.644 1.8 3.265 1.4.622 3.282-.25 3.715-.015.176.094.243.14.293.203Zm-4.012 2.007c-.293-.203-.648-.25-.894 0-.246.246-.266.668 0 .891.262.219.68.383 1.031.734.352.352.504.758.727 1.024.218.262.644.246.89 0s.215-.559 0-.89c0 0-.394-.602-.765-.981-.356-.356-.989-.778-.989-.778m176.422 3.266a.662.662 0 0 0 0 1.324.66.66 0 0 0 .656-.664.66.66 0 0 0-.656-.66m-5.949-5.32c.047-.063.113-.11.293-.203.434-.235 2.312.636 3.715.015 1.398-.62 1.8-2.008 1.8-3.265 0-1.29-1.261-2.735-2.75-2.735-.437.004-.976.219-.98.871-.004.79.5.434.5 1.274 0 .62-.82.812-.824 1.46-.008.516.172.684.637.684.812 0 .882-1.289 1.523-.84.856.606-.527 1.868-1.898 1.868-.899 0-1.989-.957-1.989-2.551 0-1.801.996-3.512 3.11-3.512 2.36.004 3.636 2.207 3.636 3.887 0 1.597-.976 2.375-.996 3.355-.02.965.47.754.528 1.68.074 1.086-.356 1.492-.836 1.762-.38.21-.903.242-1.215.523-.309.277-.309.832-.524 1.215-.27.48-.675.91-1.757.836-.926-.063-.72-.547-1.68-.531-.98.023-1.762.996-3.356.996-1.68 0-3.882-1.27-3.886-3.637-.004-2.113 1.707-3.11 3.512-3.11 1.585 0 2.546 1.09 2.546 1.993 0 1.367-1.257 2.754-1.863 1.894-.453-.64.84-.707.84-1.523 0-.465-.172-.64-.684-.637-.656.008-.84.824-1.46.824-.84 0-.485-.5-1.274-.496-.656.004-.871.54-.871.977-.004 1.492 1.445 2.75 2.734 2.75 1.254 0 2.64-.402 3.266-1.8.617-1.4-.25-3.282-.02-3.716.098-.175.137-.242.203-.293Zm3.008 2.8c-.371.38-.766.98-.766.98-.215.333-.246.645 0 .892.242.246.672.261.89 0 .22-.266.376-.672.723-1.024.356-.351.77-.516 1.036-.734.261-.223.242-.645 0-.89-.246-.247-.606-.2-.895 0 0 0-.637.421-.988.776m2.941-33.953a.66.66 0 0 1 0-1.32c.363 0 .656.297.656.656a.657.657 0 0 1-.656.664m-5.969 5.309c-.066-.055-.105-.117-.203-.297-.23-.437.637-2.316.02-3.715-.625-1.398-2.012-1.804-3.266-1.804-1.289 0-2.738 1.261-2.734 2.753 0 .442.215.973.871.977.789.008.434-.496 1.273-.496.621 0 .805.82 1.461.824.512.008.684-.172.684-.637 0-.812-1.293-.879-.84-1.523.606-.856 1.863.527 1.863 1.894 0 .903-.96 1.993-2.547 1.993-1.804 0-3.515-.993-3.511-3.11.004-2.363 2.207-3.636 3.887-3.636 1.593 0 2.375.976 3.355.992.96.023.754-.465 1.68-.528 1.082-.07 1.488.36 1.757.84.215.38.215.934.524 1.211.312.281.836.317 1.215.528.48.265.91.671.836 1.757-.059.926-.547.715-.528 1.68.02.98.996 1.758.996 3.356 0 1.68-1.277 3.882-3.636 3.886-2.114 0-3.11-1.71-3.11-3.511 0-1.59 1.09-2.551 1.989-2.551 1.37 0 2.754 1.261 1.898 1.867-.64.453-.71-.84-1.523-.84-.465 0-.645.168-.637.684.004.652.824.84.824 1.46 0 .84-.504.489-.5 1.274.004.656.543.871.98.871 1.489 0 2.75-1.445 2.75-2.734 0-1.258-.402-2.645-1.8-3.266-1.403-.62-3.281.25-3.715.016-.18-.094-.246-.137-.293-.203Zm4.016-2.016c.29.203.649.25.895.004.242-.246.261-.668 0-.886-.266-.223-.68-.387-1.036-.739-.347-.351-.503-.758-.722-1.023-.219-.262-.649-.242-.89 0-.247.246-.216.562 0 .894 0 0 .394.602.765.98.351.356.988.77.988.77"/></svg>