<svg xmlns="http://www.w3.org/2000/svg" width="214" height="64"><path fill="#FFF" d="M-21.4-6.4h256.8v76.8H-21.4z"/><path fill="#1794FF" d="m192.004 43.293 10.168-11.2h-5.82l-9.34 10.731v-10.73h-4.528l-.093 23.715h4.62v-11.29l16.548 19.387h5.918ZM99.84 32h-5.82l-9.34 10.73V31.906h-4.528L80.06 55.72h4.62V44.426l16.548 19.293 5.918.093L89.672 43.2Zm0 0"/><path fill="#1794FF" d="M119.438 32v1.79a11.96 11.96 0 0 0-7.395-2.544c-6.844 0-12.39 5.649-12.39 12.613 0 6.965 5.546 12.614 12.39 12.614 2.773 0 5.36-.942 7.394-2.45v1.602h4.715V31.906Zm-7.395 20.047c-4.438 0-7.95-3.668-7.95-8.094 0-4.516 3.602-8.094 7.95-8.094 4.437 0 7.95 3.672 7.95 8.094 0 4.52-3.606 8.094-7.95 8.094m28.191-20.707c-2.68-.004-5.285.89-7.394 2.543V32h-4.715v31.813h4.715v-9.696a11.96 11.96 0 0 0 7.394 2.543c6.844 0 12.387-5.648 12.48-12.613-.093-7.059-5.636-12.707-12.48-12.707m0 20.8c-4.433 0-7.949-3.667-7.949-8.093 0-4.516 3.606-8.094 7.95-8.094 4.437 0 7.952 3.672 7.952 8.188 0 4.332-3.609 8-7.953 8M70.352 34.259c-.282 4.234-3.7 7.531-7.954 7.531-.367 0-.644 0-1.015-.094.926-3.11 1.48-6.308 1.48-9.695 0-17.602-14.05-32-31.433-32C14.145 0 0 14.305 0 32s14.05 32 31.43 32c12.386 0 23.113-7.34 28.289-17.977.832.188 1.758.282 2.68.282 3.05 0 5.824-1.13 7.953-2.918v12.332h4.714V31.906h-4.714ZM31.43 59.484C16.547 59.484 4.438 47.152 4.438 32 4.528 16.848 16.547 4.516 31.43 4.516S58.426 16.848 58.332 32c0 2.73-.371 5.363-1.11 7.813-1.663-1.508-2.773-3.672-2.773-6.118v-1.789h-4.437v1.79c0 4.421 2.218 8.28 5.547 10.538-4.438 9.036-13.59 15.246-24.13 15.246Zm141.808-13.648c-.183 3.574-3.14 6.492-6.75 6.492-3.695 0-6.746-3.105-6.746-6.871v-13.27h-4.344v13.27c0 6.309 4.899 11.297 11.09 11.297 2.59 0 4.903-.848 6.75-2.356V56h4.621V32.188h-4.62Zm0 0"/><path fill="#1794FF" fill-rule="evenodd" d="M208.453 28.77v-2.055h.809l1.203 2.055h.933l-1.418-2.274c.653-.273.977-.726.977-1.367q0-.75-.469-1.125-.464-.37-1.437-.371h-1.418v5.137Zm.57-2.75h-.57v-1.676h.543q.558 0 .836.187c.188.13.277.336.277.625q-.001.427-.254.649-.257.215-.832.215m0 0"/><path fill="#1794FF" fill-rule="evenodd" d="M214 26.371c0 2.649-2.098 4.793-4.687 4.793-2.586 0-4.684-2.144-4.684-4.793s2.098-4.797 4.684-4.797c2.59 0 4.687 2.149 4.687 4.797m-.781 0c0 2.207-1.75 3.992-3.906 3.992s-3.907-1.785-3.907-3.992 1.75-3.996 3.906-3.996 3.907 1.79 3.907 3.996m0 0"/></svg>