<svg xmlns="http://www.w3.org/2000/svg" width="60.149" height="45.554" viewBox="-0.185 -0.186 60.149 45.554"><defs><clipPath id="a"><path d="M1 31h11v13.219H1Zm0 0"/></clipPath><clipPath id="b"><path d="M8 1h34v34H8Zm0 0"/></clipPath><clipPath id="c"><path d="M38 7h20.777v21H38Zm0 0"/></clipPath></defs><g clip-path="url(#a)"><path d="M11.664 32.688c-.023-.079-.066-.126-.144-.188-.079-.059-.125-.059-.125-.059l-.02-.02c.027-.03-.008-.038.012-.093.023-.05 0-.062 0-.062s-.055 0-.043-.051c.004-.05.031-.074.02-.106-.012-.035-.048 0-.063-.047-.02-.07-.043-.054-.043-.054l-.04-.012c-.042-.05-.109-.05-.109-.05l-.062-.048c-.043-.125-.05-.265-.078-.261-.028 0-.008.054-.028.105-.015.051-.035.028-.035.028-.09-.215-.172-.192-.195-.227s-.04-.02-.09-.063-.086.004-.023.047c.066.043.074.13.093.164.016.032-.011.051-.043.032-.03-.024-.015-.07-.062-.145-.047-.07-.211-.23-.219-.183-.015.05.047.07.098.21.05.141.004.133-.012.137-.015 0-.043-.015-.105-.101-.059-.086-.106-.098-.106-.098-.027-.055-.07-.074-.12-.11-.056-.035-.067-.09-.09-.062-.028.027-.005.082.066.152.074.079.062.07.093.145.032.07.024.086-.027.09-.047.004-.144-.121-.191-.168a2 2 0 0 0-.141-.13c-.047-.038-.059.009-.031.06.023.046.097.156.148.222.051.07-.004.09-.047.086-.039 0-.086-.035-.086-.035-.097-.059-.117-.059-.16-.086-.043-.023-.105-.09-.117-.074-.016.012-.039.031.016.12.058.095-.004.09-.004.09-.094-.034-.18.016-.16.09a.3.3 0 0 0 .074.13s-.004.003-.016.042c-.008.04.04.075.04.075 0 .039.027.117.093.12.125 0 .02.024.117.055.102.032.258.032.258.032.008.023-.02.043-.02.043s-.347.129-.828.687c-.015.02-.043.098-.062.121a3 3 0 0 0-.207.285c-.027.047-.082.11-.113.157-.086.152-.172.27-.247.418-.02.039-.046.12-.07.152-.183.281-.281.395-.281.395s-.121.167-.649.39a2 2 0 0 1-.332.106c-.18.039-.34.082-.5.132-.175.055-.324.094-.585.204-.172.074-.422.218-.657.328 0 0-.008-.043-.043-.11-.008-.011-.02-.043-.027-.058-.012-.016-.02-.024-.031-.04-.012-.015-.016-.035-.028-.05-.015-.02-.039-.04-.058-.063-.063-.074-.117-.14-.242-.164-.02-.004-.04-.015-.055-.023-.012 0-.031-.012-.043-.016-.031-.015-.066-.05-.098-.066a.9.9 0 0 1-.234-.192s-.117-.515-.543-.863c-.024-.02-.066-.012-.09-.023-.035-.028-.055-.086-.082-.102l-.059.008-.003-.02-.06-.082-.026.036c-.125-.059-.27-.133-.43-.153l-.219.024q-.133.004-.254.027a2 2 0 0 0-.176.05q-.278.09-.488.243a2 2 0 0 0-.39.41c-.36.414-.485 1.027-.485 1.027a1 1 0 0 0-.101.333 1.87 1.87 0 0 0-.09 1.136 1 1 0 0 0 .336.52l.004-.04-.149-.312a2.3 2.3 0 0 1-.047-.418c-.011-.21.047-.418.063-.484.015-.067.047-.098.047-.098.03.063.11.18.11.18-.02-.09-.075-.29-.075-.29.176-.366.285-.44.285-.44v-.02c-.02-.012-.031-.024-.031-.024.039.012.058.004.058.004.07-.082.133-.14.133-.14a.15.15 0 0 0 .043.054l.016-.039.023.004.012-.031c.02-.008.043.008.043.008l.031-.012a.16.16 0 0 0-.086.09l.02.047.078.062.008.016c-.094.14-.133.273-.133.273-.004.04-.024.102-.024.102a.7.7 0 0 0-.03.293c.015.07.062.117.062.117s.035-.133.054-.195c.02-.063.04-.078.067-.153.023-.07.066-.101.066-.101l.008-.008c0 .035-.027.18.016.254.039.074.058.133.074.129.015-.008.043-.074.043-.074s.008.02.02.039c.007.023-.005.047-.005.047-.101.054-.105.078-.105.078h.035c.094-.004.008.027.008.027-.059.016-.055.04-.055.04l.04.003-.005.02.032.003.004.012-.055.035c.012.121.078.118.183.086.11-.027.207-.062.207-.062l-.007.02s.246-.06.316-.075c.074-.02.125.04.125.04-.023.019-.02.058-.02.058-.046.011-.046.07-.046.07s-.028.012-.008.078a.6.6 0 0 0 .094.168c.062.004.086.047.066.113-.023.063.016.133.129.149.117.016.117.062.117.062.043.07.012.133.012.133-.067.078.066.153.066.153.067.07.024.144.024.144l-.02-.023v.03l-.027-.038v.039l-.043-.024a.3.3 0 0 0 .082.094v.035l.012.016-.004.027c.015.028-.004.043-.004.043.058.035.015.102.015.102.082.05.13.11.13.11l-.016.03.074.008.05.035.04-.027.027.031.012.035.015.012v.031c.024.024.008.043.008.043.063.024.035.094.035.094a.5.5 0 0 1 .032.098l.082.055.058.027.028.004-.02.086.031-.032.063.079a.8.8 0 0 0 .23.273c.059.04.016.078.016.078.086.05.133.11.133.11l-.016.03.07.005.055.039.04-.028.034.047.035-.004-.007.032.078.086.047.003-.02.036.055.015-.008.04.07-.024.028.039.062.047.063.023.023.008.055.063.031-.032.063.078.035.036-.035.027c.02.016.144.086.144.086l.016.05.035.028v.07s.015 0 .078-.011c.062-.012.113.035.113.035-.031.238.028.21.028.21l.058-.023c.082 0 .106-.05.106-.05.007.042.093.066.097.097.008.031-.05.067-.05.067l.05.023.028-.02v.032l.054-.02c.028.137.063.106.063.106s.062-.028.078-.051c.016-.028.07.055.07.055l.008.058c-.047.125-.031.313-.031.313.074.195.16.277.16.277s.031.293.09.383.258.715.293.82l.078.246s-.02.04-.004.043c.016 0 .012.028.012.028-.024.039 0 .03 0 .054.004.02.004.133-.04.14-.042.005-.042.06-.042.06-.07.035-.051.046-.055.058a.3.3 0 0 1-.043.04l-.004.015s-.027.027-.043.047-.078.07-.078.07l-.031.02-.035.027-.024.015-.027.012-.027.008-.016.016-.016.007c-.093.016-.14.075-.172.145-.03.074 0 .148.036.078.039-.062.097-.062.097-.062s-.008.066.094.074a.23.23 0 0 0 .156-.043.2.2 0 0 0 .035-.055c.008-.016.047-.023.047-.023.04-.036.059-.063.098-.09.035-.028.043-.024.043-.024s.008.059-.012.102-.101.117-.101.117a.7.7 0 0 0-.164.074 1 1 0 0 0-.067.063v.015c-.058.036-.164.141-.176.22-.015.081.051.023.086-.013.035-.039.067-.062.067-.062h.023c.02.035.133.055.188 0 .054-.059.097-.059.129-.059.035-.007.078 0 .14-.097a.24.24 0 0 1 .188-.117c.054-.008.117.035.117.035l-.016.008a.25.25 0 0 0-.18.187c-.015.066.02.09.04.047.02-.047.078-.074.093-.078.008 0 .012.015.012.015.016.063.098.078.164.063.074-.02.09-.063.102-.082s.023-.024.023-.024 0 .055-.004.079a.4.4 0 0 1-.066.078c-.055.027-.059.043-.059.043-.11.015-.117.035-.129.043s-.027.023-.027.023a.4.4 0 0 0-.188.145c-.03.039-.074.144-.03.113.054-.04.136-.094.136-.094.035-.023.02.02.059.035.058.024.164-.011.164-.011.02-.032.043-.036.043-.036.12 0 .164-.058.164-.058h.07l.059-.035c.113-.032.082-.075.082-.075.039-.004.34-.004.382 0 .047.008.164.043.164.043l.188.008s.172.031.219.012a.21.21 0 0 1 .195.004c.055.027.203.027.219-.008s.043-.055.043-.055c.078.012.125.094.195.086s-.008-.086-.102-.16a.45.45 0 0 0-.214-.086l-.004-.008c.043-.011.011.016.133 0 .117-.015.093-.062.093-.062.043-.04.114-.035.203-.012.094.031.079-.012-.02-.094-.1-.086-.257-.039-.257-.039l-.027-.02h-.07l-.036-.015c-.082.012-.285.07-.394.031-.102-.039-.16-.015-.16-.015l-.079-.043c.043.004.067-.04.067-.04.078.044.148-.003.148-.003s0 .02.102.02c.101-.005.117-.098.117-.098.031-.02.105-.008.105-.008.145.07.094-.012.094-.012-.101-.156-.277-.097-.277-.097-.078-.043-.086-.012-.086-.012a.4.4 0 0 0-.203.02c-.086 0-.172-.008-.262.003-.082.012-.238-.02-.238-.02-.078-.132-.152-.562-.188-.648a10 10 0 0 1-.144-.629l-.055-.343c.04-.043.04-.063.043-.196.008-.125.078-.144.113-.316.036-.176.274-.406.34-.492.063-.09.168-.285.168-.285.04.058.067.03.102-.008.031-.035.027-.117.039-.145.015-.027.023-.078.023-.078l.004-.098c.02-.082.063-.175.063-.175l.02-.055.01-.031s-.01-.004.063-.125c.075-.121.27-.254.27-.254l-.066.078c.039-.023.16-.07.16-.07l.039-.032-.02.055c.156-.18.188-.117.188-.117l.004-.063c.015-.03.043.028.043.028.062-.063.109-.117.109-.117l.008.066.027.008c.008-.051.043-.078.043-.078.016.039-.008.097-.008.097l.024-.043.008.012c.027-.023.043-.086.043-.086l.027.004s.062-.082.055-.14a.3.3 0 0 1 .03-.126c.009.051.044.067.044.067v-.098l.027.012c-.004-.102.012-.215.012-.215.137-.129.52-.434.52-.434.1-.078.183-.195.324-.316.144-.121.253-.203.253-.203l-.007-.035.035-.012c.12-.168.23-.371.277-.54l.137-.448-.012-.035c.063-.008.012-.09.05-.118.04-.03.036-.129.036-.129.05-.097.04-.18.04-.18a.4.4 0 0 0 .034-.167c-.004-.051.024-.14.07-.41.06-.309-.097-.641-.144-.91-.101-.25-.226-.438-.309-.575-.046-.074.004-.093.004-.093l.172-.04.27-.085s.062-.043.09-.083c.023-.039.043-.046.043-.046.09-.016.078-.09.078-.09.094-.098.062-.285.062-.285s.04-.067-.023-.266c-.063-.203-.145-.215-.145-.215s.004-.008-.02-.047c-.019-.035-.054-.035-.054-.035.012-.031.035-.039.059-.062.02-.024.043-.016.043-.016.046.004.062.008.113.008.05-.004.078-.008.101-.024.028-.011.079.036.06-.047M7.183 42.77c-.032-.11-.063-.133-.118-.317-.054-.187-.242-.937-.242-.937l.031-.028c.032.102.137.246.137.246.086.215.16.555.211.79s.082.359.082.359c-.058-.094-.101-.113-.101-.113"/></g><g clip-path="url(#b)"><path fill="#FDC300" d="M38.844 25.93c-.352.035-1.317-.965-1.465-2.348-.102-.941.36-11.039.289-11.668-.07-.633.703-2.398 1.484-2.77.832-.394 1.075-.496 1.996-.542a12 12 0 0 0-.523-1.204v.004s-1.941.137-2.816-.355c-.875-.496-.489-.703-.137-.95.351-.242 1.078-.066 2.113.145 0 0 .04.04.098.094-3.082-3.344-9.52-5.207-14.703-5.332-3.38-.078-6.66.629-7.602.91-.937.285-5.086 1.188-7.46 4.64-1.763 2.56-2.602 5.79-1.516 9.653 1.085 3.867 3.359 6.703 4.664 8.516 1.3 1.808 3.28 3.289 1.898 4.894-1.383 1.61-2.617 2.793-2.617 2.793l4.789-2.05s2.309 2.152 3.691 2.91c1.387.757 3.438 1.437 5.133 1.406 1.887-.031 6.695-1.469 10.54-5.758.995-1.113 1.831-2.16 2.546-3.203-.184.262-.172.191-.402.215"/></g><g clip-path="url(#c)"><path fill="#FDC300" d="M58.297 10.238c-.215-.508-.676-1.828-2.27-2.683-1.597-.856-4.109-.485-5.5.968-1.382 1.45-3.355 4.86-3.812 5.657-.453.8-.762 1.12-.762 1.12l-3.101.02s-.317-1.879-.852-3.945c-.305-.11-2.055-.664-2.227.91-.18 1.649-.46 1.988.625 2.41 1.082.422 2.133 1.09 1.36 1.86-.77.77-1.649.758-2.035.898-.383.14-.946.524-.848 2.274.102 1.753.422 1.773.945 2.125.41.273 1.121.457.977 1.195 1.039-2.164 1.66-4.508 2.082-7.504 0 0 2.578 1.086 3.113 1.492s1.106-.027 1.274 2.863c.172 2.887.183 5.672 1.199 6.438 1.015.766 3.137 1.453 5.129-.957 1.996-2.414 2.398-3.527 3.047-4.695.629-1.133 1.527-3.649 1.644-3.98.567-1.618.738-4.74.012-6.466"/></g><path fill="#FFF" d="M17.52 10.992c-.13-1.172-1.665-2.629-2.157-2.828-3.515-1.445-6.156 2.32-6.234 2.535-.211.543-.195.899-.016 1.774.364 1.722 2.88 8.465 4.766 11.777 1.906 3.344 1.316-1.262.77-4.113a95 95 0 0 1-.665-3.989s.97-.5 2.426-1.543c1.461-1.046 1.238-2.44 1.11-3.613m2.425-2.183c-.289.359-1.343.976-1.847 5.218-.504 4.23-.633 4.391-.75 7.07-.118 2.743-.094 5.262.617 5.481.715.223.824-.805.906-1.707.078-.906.238-1.406.715-3.812.473-2.407.871-3.922 1.59-4.063 1.398-.273 1.262 2.227 1.476 3.309.196.992.641 3.742 1.055 4.722 1.344 3.176 1.762.305 1.813-.922.05-1.222-.551-6.792-1.266-11.125-.719-4.332-2.961-5.828-4.309-4.171"/><path fill="#FFF" fill-rule="evenodd" d="M32.938 6.035c.425-.433.464-1.11-1.31-1.45-2.308-.444-5.519-.647-8.585-.241-1.137.152-2.152.562-2.36 1.066-.269.664.02 1.363.973 1.461 1.172.121 1.485.176 2.157.36 1.21.332 1.757 1.257 2.109 3.425.422 2.598.781 11.176.863 13.13.047 1.128.215 3.003.348 3.609.367 1.66 1.004 1.753 1.363.734.356-1.016.277-5.977.2-8.602-.083-2.629.03-6.965-.028-9.093-.047-1.82.39-2.973 1.395-3.579.988-.597 2.32-.25 2.875-.82"/><path fill="#FFF" fill-rule="evenodd" d="M36.227 7.773c-1.016-.316-1.368.489-1.579 1.47-.214.98-.5 4.062-.398 5.464s.098 2.805-.918 2.73c-1.016-.07-.871-.625-.832-3.078.035-2.367.969-7.234-.477-7.187-.472.016-.89.422-1.09.922-.14.347-.562 1.558-.39 4.398.168 2.84-.016 6.621-.02 8.024-.003 1.398-.187 5.53-.226 6.726-.035 1.188.21 3.703 1.328 1.367.469-.98.496-2.59.746-4.449.25-1.855.18-2.484.465-3.43.281-.945 1.05-1.945 1.297-.453.137.84-.39 4.078-.371 5.047.035 1.746.156 3.793.504 4.192.996 1.129 1.316-.336 1.46-1 .141-.668.356-3.996.395-5.047s.73-12.274.8-13.59c.036-.668.321-1.785-.694-2.106m3.593 14.079c-.523-.352-.84-.372-.945-2.125-.098-1.75.46-2.133.848-2.274.386-.14 1.261-.129 2.035-.898.773-.77-.278-1.438-1.363-1.86-1.083-.422-.801-.761-.622-2.41.172-1.574 1.922-1.02 2.227-.91-.242-.937-.527-1.914-.852-2.773-.921.046-1.164.148-1.996.543-.78.37-1.554 2.136-1.484 2.77.07.628-.39 10.726-.29 11.667.15 1.383 1.114 2.383 1.466 2.348.23-.024.218.043.402-.215a21 21 0 0 0 1.55-2.668c.145-.738-.566-.922-.976-1.195"/><path fill="#FFF" fill-rule="evenodd" d="M39.82 21.852c-.523-.352-.84-.372-.945-2.125-.098-1.75.46-2.133.848-2.274.386-.14 1.261-.129 2.035-.898.773-.77-.278-1.438-1.363-1.86-1.083-.422-.801-.761-.622-2.41.172-1.574 1.922-1.02 2.227-.91-.242-.937-.527-1.914-.852-2.773-.921.046-1.164.148-1.996.543-.78.37-1.554 2.136-1.484 2.77.07.628-.39 10.726-.29 11.667.15 1.383 1.114 2.383 1.466 2.348.23-.024.218.043.402-.215a21 21 0 0 0 1.55-2.668c.145-.738-.566-.922-.976-1.195m9.727 2.152c-.664 1.176-.082 1.683.726 2.07.805.387 1.25-.105 1.516-.504.27-.406.383-.582.352-1.351-.036-.77-1.848-1.54-2.594-.215m5.871-14.875c-1.488-.574-2.176-.399-2.852.344-.39.433-1.265 3.136-1.523 4.988-.129.937-.25 5.96-.25 5.96s-.04 3.177 1.148 1.56c.528-.72 1.848-3.301 2.36-4.551.515-1.25 1.96-4.098 2.027-5.114.07-1.011.582-2.617-.91-3.187M37.672 6.102c-.348.242-.738.453.14.945.872.492 2.813.355 2.813.355v-.004a4.4 4.4 0 0 0-.55-.843c-.063-.075-.126-.157-.192-.227l-.086-.086c-1.035-.215-1.774-.387-2.125-.14"/><path fill="#FFF" fill-rule="evenodd" d="M37.672 6.102c-.348.242-.738.453.14.945.872.492 2.813.355 2.813.355v-.004a4.4 4.4 0 0 0-.55-.843c-.063-.075-.126-.157-.192-.227l-.086-.086c-1.035-.215-1.774-.387-2.125-.14"/><path fill="#FDC300" fill-rule="evenodd" d="M20.316 13.707c-.386 1.922 1.957.86 2.086.527.106-.273-.16-1.48-.914-2.418-.754-.937-1.05 1.301-1.172 1.891"/><path fill="#FDC300" d="M13.965 10.898c-.512-.414-1.219-.472-1.504.043-.29.52-.672 1.082.418 2.762.262.402 1.703-.39 1.726-1.121.024-.613-.222-1.348-.64-1.684"/></svg>