<svg xmlns="http://www.w3.org/2000/svg" width="321.833" height="169.287" viewBox="-6.189 -6.189 321.833 169.287"><defs><clipPath id="a"><path d="M65 140h12v16.98H65Zm0 0"/></clipPath><clipPath id="b"><path d="M64 139h14v17.98H64Zm0 0"/></clipPath><clipPath id="c"><path d="M234 140h12v16.98h-12Zm0 0"/></clipPath><clipPath id="d"><path d="M233 139h14v17.98h-14Zm0 0"/></clipPath><clipPath id="e"><path d="M.117 0h309.227v124H.117Zm0 0"/></clipPath></defs><path fill="#EE392A" d="M31.2 138.559h3.468c3.797 0 5.16 2.23 5.16 5.921 0 5.711-3.793 6.098-5.203 6.098h-3.426Zm-2.063 13.754h5.316c5.16 0 7.438-2.93 7.438-8.114 0-4.992-2.668-7.375-7.438-7.375h-5.316"/><path fill="none" stroke="#EF3120" stroke-width=".223" d="M31.2 138.559h3.468c3.797 0 5.164 2.23 5.164 5.921 0 5.711-3.797 6.098-5.207 6.098h-3.426Zm0 0"/><path fill="none" stroke="#EF3120" stroke-width=".223" d="M29.137 152.313h5.316c5.16 0 7.438-2.93 7.438-8.114 0-4.992-2.668-7.375-7.438-7.375h-5.316Zm0 0"/><path fill="#EE392A" d="M44.21 139.078h1.84v-2.254h-1.84Zm0 13.234h1.84v-11.214h-1.84z"/><path fill="none" stroke="#EF3120" stroke-width=".223" d="M44.21 141.094h1.84v11.219h-1.84Zm1.84-2.02h-1.84v-2.25h1.84Zm0 0"/><path fill="#EE392A" d="M50.262 145.633c.133-1.715 1.277-3.168 3.21-3.168 1.821 0 3.145 1.406 3.231 3.168Zm6.398 3.12c-.324 1.458-1.387 2.196-2.906 2.196-2.45 0-3.559-1.738-3.492-3.691h8.394c.11-2.715-1.11-6.422-5.074-6.422-3.059 0-5.273 2.473-5.273 5.84.109 3.43 1.804 5.898 5.382 5.898 2.512 0 4.29-1.347 4.79-3.82"/><path fill="none" stroke="#EF3120" stroke-width=".223" d="M50.262 145.633c.133-1.715 1.277-3.168 3.21-3.168 1.825 0 3.145 1.406 3.231 3.168Zm0 0"/><path fill="none" stroke="#EF3120" stroke-width=".223" d="M56.66 148.754c-.324 1.457-1.387 2.195-2.906 2.195-2.45 0-3.559-1.738-3.492-3.691h8.394c.11-2.715-1.105-6.422-5.074-6.422-3.059 0-5.273 2.473-5.273 5.84.109 3.43 1.804 5.898 5.382 5.898 2.512 0 4.293-1.344 4.793-3.82Zm0 0"/><g clip-path="url(#a)"><path fill="#EE392A" d="M71.102 150.82c-2.43 0-3.165-2.261-3.165-4.277 0-2.148.954-4.078 3.317-4.078 2.32 0 3.187 2.039 3.187 4.012 0 2.105-.91 4.343-3.34 4.343m5.165-9.726H74.53v1.605h-.02c-.675-1.23-1.933-1.863-3.343-1.863-3.883 0-5.184 3.273-5.184 5.922 0 3.062 1.672 5.687 5.012 5.687 1.41 0 2.883-.672 3.488-2.043h.047v.739c0 2.515-.957 4.254-3.363 4.254-1.211 0-2.82-.473-2.906-1.825h-1.844c.11 2.453 2.539 3.301 4.64 3.301 3.536 0 5.208-1.863 5.208-5.512"/></g><path fill="none" stroke="#EF3120" stroke-width=".223" d="M71.102 150.82c-2.43 0-3.168-2.261-3.168-4.277 0-2.148.957-4.078 3.32-4.078 2.32 0 3.187 2.039 3.187 4.012 0 2.105-.91 4.343-3.34 4.343Zm0 0"/><g clip-path="url(#b)"><path fill="none" stroke="#EF3120" stroke-width=".223" d="M76.266 141.094H74.53v1.605h-.02c-.675-1.23-1.933-1.863-3.343-1.863-3.883 0-5.184 3.273-5.184 5.922 0 3.058 1.672 5.687 5.012 5.687 1.41 0 2.883-.672 3.488-2.043h.047v.739c0 2.515-.957 4.254-3.363 4.254-1.211 0-2.82-.473-2.906-1.825h-1.844c.11 2.453 2.539 3.301 4.64 3.301 3.536 0 5.208-1.863 5.208-5.512Zm0 0"/></g><path fill="#EE392A" d="M85.98 148.41c0 1.02-.996 2.54-3.425 2.54-1.13 0-2.172-.434-2.172-1.653 0-1.363 1.043-1.797 2.258-2.016 1.238-.219 2.625-.242 3.34-.761Zm2.993 2.43c-.239.086-.41.11-.559.11-.59 0-.59-.395-.59-1.259v-5.773c0-2.625-2.191-3.082-4.207-3.082-2.496 0-4.64.98-4.75 3.754h1.844c.09-1.649 1.238-2.125 2.8-2.125 1.173 0 2.493.262 2.493 1.867 0 1.387-1.734 1.258-3.774 1.648-1.91.368-3.796.91-3.796 3.45 0 2.234 1.668 3.144 3.707 3.144 1.562 0 2.93-.543 3.949-1.734 0 1.215.61 1.734 1.558 1.734.586 0 1-.11 1.325-.304"/><path fill="none" stroke="#EF3120" stroke-width=".223" d="M85.984 148.41c0 1.02-1 2.54-3.43 2.54-1.128 0-2.171-.434-2.171-1.653 0-1.363 1.043-1.797 2.258-2.016 1.238-.218 2.625-.242 3.343-.761Zm0 0"/><path fill="none" stroke="#EF3120" stroke-width=".223" d="M88.977 150.84a1.6 1.6 0 0 1-.563.11c-.59 0-.59-.395-.59-1.259v-5.773c0-2.625-2.191-3.082-4.207-3.082-2.496 0-4.644.98-4.75 3.754h1.844c.086-1.649 1.238-2.125 2.8-2.125 1.173 0 2.493.262 2.493 1.867 0 1.387-1.734 1.258-3.774 1.648-1.91.368-3.793.91-3.793 3.45 0 2.234 1.665 3.144 3.704 3.144 1.562 0 2.93-.543 3.949-1.734 0 1.215.61 1.734 1.558 1.734.59 0 1-.11 1.329-.304Zm0 0"/><path fill="#EE392A" d="M90.691 141.094h1.73v1.781h.048c.777-1.39 2.035-2.04 3.64-2.04 2.95 0 3.864 1.688 3.864 4.099v7.379h-1.844v-7.594c0-1.364-.871-2.254-2.281-2.254-2.23 0-3.317 1.496-3.317 3.512v6.335h-1.84"/><path fill="none" stroke="#EF3120" stroke-width=".223" d="M90.687 141.094h1.735v1.781h.043c.781-1.39 2.043-2.04 3.644-2.04 2.953 0 3.86 1.692 3.86 4.099v7.379h-1.84v-7.594c0-1.364-.871-2.254-2.281-2.254-2.23 0-3.317 1.496-3.317 3.512v6.336h-1.844Zm0 0"/><path fill="#EE392A" d="m101.836 150.906 6.77-8.18h-6.336v-1.632h8.718v1.261l-6.851 8.333h7.156v1.625h-9.457"/><path fill="none" stroke="#EF3120" stroke-width=".223" d="m101.836 150.906 6.77-8.183h-6.336v-1.63h8.722v1.262l-6.855 8.333h7.156v1.625h-9.457Zm0 0"/><path fill="#EE392A" d="M114.504 145.633c.129-1.715 1.277-3.168 3.21-3.168 1.821 0 3.145 1.406 3.231 3.168Zm6.394 3.12c-.324 1.458-1.386 2.196-2.902 2.196-2.453 0-3.558-1.738-3.492-3.691h8.39c.11-2.715-1.105-6.422-5.074-6.422-3.058 0-5.27 2.473-5.27 5.84.11 3.43 1.802 5.898 5.38 5.898 2.515 0 4.293-1.347 4.793-3.82"/><path fill="none" stroke="#EF3120" stroke-width=".223" d="M114.504 145.633c.129-1.715 1.277-3.168 3.21-3.168 1.821 0 3.145 1.406 3.231 3.168Zm0 0"/><path fill="none" stroke="#EF3120" stroke-width=".223" d="M120.898 148.754c-.324 1.457-1.386 2.195-2.902 2.195-2.453 0-3.559-1.738-3.492-3.691h8.39c.11-2.715-1.105-6.422-5.074-6.422-3.058 0-5.27 2.473-5.27 5.84.11 3.43 1.802 5.898 5.38 5.898 2.515 0 4.293-1.344 4.793-3.82Zm0 0"/><path fill="#EE392A" d="M145.129 152.313h-2.149l-3.535-13.02h-.043l-3.582 13.02h-2.144l-3.969-15.489h2.102l3.039 12.887h.043l3.468-12.887h2.235l3.43 12.887h.038l3.149-12.887h2.062"/><path fill="none" stroke="#EF3120" stroke-width=".223" d="M145.129 152.313h-2.149l-3.535-13.02h-.043l-3.582 13.02h-2.144l-3.969-15.489h2.102l3.039 12.887h.039l3.472-12.887h2.235l3.43 12.887h.038l3.149-12.887h2.062Zm0 0"/><path fill="#EE392A" d="M151.031 145.633c.13-1.715 1.281-3.168 3.207-3.168 1.825 0 3.145 1.406 3.235 3.168Zm6.399 3.12c-.328 1.458-1.39 2.196-2.907 2.196-2.453 0-3.558-1.738-3.492-3.691h8.395c.105-2.715-1.106-6.422-5.074-6.422-3.059 0-5.274 2.473-5.274 5.84.11 3.43 1.8 5.898 5.379 5.898 2.516 0 4.297-1.347 4.793-3.82"/><path fill="none" stroke="#EF3120" stroke-width=".223" d="M151.031 145.633c.13-1.715 1.281-3.168 3.207-3.168 1.824 0 3.145 1.406 3.235 3.168Zm0 0"/><path fill="none" stroke="#EF3120" stroke-width=".223" d="M157.43 148.754c-.325 1.457-1.391 2.195-2.907 2.195-2.453 0-3.558-1.738-3.492-3.691h8.395c.11-2.715-1.106-6.422-5.074-6.422-3.06 0-5.274 2.473-5.274 5.84.11 3.43 1.8 5.898 5.379 5.898 2.516 0 4.297-1.344 4.793-3.82Zm0 0"/><path fill="#EE392A" d="M161.441 152.313h1.844v-15.489h-1.844z"/><path fill="none" stroke="#EF3120" stroke-width=".223" d="M161.437 136.824h1.848v15.489h-1.848Zm0 0"/><path fill="#EE392A" d="M168.707 141.094h2.23v1.629h-2.23v6.964c0 .848.234 1 1.387 1h.844v1.625h-1.407c-1.914 0-2.668-.39-2.668-2.449v-7.14h-1.906v-1.63h1.906v-3.359h1.844"/><path fill="none" stroke="#EF3120" stroke-width=".223" d="M168.707 141.094h2.23v1.633h-2.23v6.96c0 .848.234 1 1.387 1h.843v1.626h-1.406c-1.914 0-2.668-.387-2.668-2.45v-7.136h-1.906v-1.633h1.906v-3.36h1.844Zm0 0"/><path fill="#EE392A" d="M180.355 146.805c0-2.192.844-4.34 3.356-4.34 2.539 0 3.539 2.039 3.539 4.25 0 2.105-.957 4.234-3.43 4.234-2.382 0-3.465-2.039-3.465-4.144m8.672-9.98h-1.843v5.769h-.043c-.825-1.32-2.47-1.758-3.621-1.758-3.43 0-5.122 2.672-5.122 5.84 0 3.164 1.72 5.898 5.165 5.898 1.539 0 2.972-.543 3.578-1.777h.043v1.516h1.843"/><path fill="none" stroke="#EF3120" stroke-width=".223" d="M180.355 146.805c0-2.192.844-4.34 3.356-4.34 2.539 0 3.539 2.039 3.539 4.25 0 2.105-.957 4.234-3.43 4.234-2.383 0-3.465-2.039-3.465-4.144Zm0 0"/><path fill="none" stroke="#EF3120" stroke-width=".223" d="M189.027 136.824h-1.843v5.77h-.043c-.825-1.32-2.47-1.758-3.621-1.758-3.43 0-5.122 2.672-5.122 5.84 0 3.164 1.72 5.898 5.164 5.898 1.543 0 2.973-.543 3.579-1.777h.043v1.516h1.843Zm0 0"/><path fill="#EE392A" d="M193.215 145.633c.129-1.715 1.277-3.168 3.21-3.168 1.821 0 3.145 1.406 3.231 3.168Zm6.398 3.12c-.324 1.458-1.386 2.196-2.906 2.196-2.45 0-3.555-1.738-3.492-3.691h8.39c.114-2.715-1.101-6.422-5.07-6.422-3.062 0-5.273 2.473-5.273 5.84.11 3.43 1.8 5.898 5.379 5.898 2.515 0 4.297-1.347 4.793-3.82"/><path fill="none" stroke="#EF3120" stroke-width=".223" d="M193.21 145.633c.134-1.715 1.282-3.168 3.212-3.168 1.82 0 3.144 1.406 3.23 3.168Zm0 0"/><path fill="none" stroke="#EF3120" stroke-width=".223" d="M199.613 148.754c-.332 1.457-1.39 2.195-2.91 2.195-2.45 0-3.558-1.738-3.492-3.691h8.394c.11-2.715-1.109-6.422-5.074-6.422-3.058 0-5.27 2.473-5.27 5.84.106 3.43 1.801 5.898 5.376 5.898 2.52 0 4.3-1.344 4.797-3.82Zm0 0"/><path fill="#EE392A" d="M204.645 148.781c.058 1.645 1.496 2.164 3.015 2.164 1.145 0 2.707-.257 2.707-1.668 0-1.437-1.82-1.672-3.668-2.086-1.816-.41-3.664-1.015-3.664-3.168 0-2.253 2.235-3.187 4.188-3.187 2.472 0 4.445.777 4.597 3.516h-1.843c-.13-1.434-1.391-1.887-2.602-1.887-1.105 0-2.383.305-2.383 1.43 0 1.324 1.95 1.539 3.664 1.953 1.84.414 3.664 1.023 3.664 3.187 0 2.672-2.496 3.535-4.773 3.535-2.516 0-4.64-1.015-4.75-3.789"/><path fill="none" stroke="#EF3120" stroke-width=".223" d="M204.644 148.781c.06 1.645 1.497 2.168 3.016 2.168 1.145 0 2.707-.258 2.707-1.668 0-1.437-1.82-1.672-3.668-2.086-1.816-.41-3.664-1.02-3.664-3.172 0-2.253 2.234-3.187 4.188-3.187 2.472 0 4.445.781 4.597 3.516h-1.843c-.13-1.434-1.391-1.887-2.602-1.887-1.106 0-2.387.305-2.387 1.43 0 1.328 1.953 1.543 3.668 1.953 1.84.414 3.664 1.023 3.664 3.191 0 2.668-2.496 3.535-4.773 3.535-2.516 0-4.64-1.015-4.75-3.793Zm0 0"/><path fill="#EE392A" d="M229.652 141.36c-.238-2.212-1.714-3.169-3.84-3.169-1.73 0-3.472.625-3.472 2.645 0 1.91 2.472 2.191 4.972 2.754 2.47.57 4.938 1.433 4.938 4.469 0 3.3-3.23 4.625-6.047 4.625-3.469 0-6.398-1.696-6.398-5.465h1.953c0 2.601 2.168 3.73 4.512 3.73 1.859 0 3.921-.59 3.921-2.82 0-2.129-2.468-2.496-4.941-3.04-2.477-.546-4.973-1.257-4.973-4.1 0-3.145 2.801-4.532 5.621-4.532 3.168 0 5.579 1.492 5.704 4.902"/><path fill="none" stroke="#EF3120" stroke-width=".223" d="M229.652 141.36c-.238-2.215-1.715-3.172-3.84-3.172-1.738 0-3.472.628-3.472 2.648 0 1.91 2.472 2.191 4.972 2.754 2.47.57 4.938 1.433 4.938 4.473 0 3.296-3.23 4.62-6.047 4.62-3.473 0-6.398-1.69-6.398-5.464h1.949c0 2.601 2.172 3.73 4.515 3.73 1.86 0 3.922-.59 3.922-2.82 0-2.129-2.468-2.496-4.941-3.04-2.477-.546-4.973-1.257-4.973-4.1 0-3.145 2.801-4.532 5.621-4.532 3.168 0 5.579 1.492 5.704 4.902Zm0 0"/><g clip-path="url(#c)"><path fill="#EE392A" d="M243.184 146.605c0 2.196-.848 4.34-3.36 4.34-2.543 0-3.535-2.035-3.535-4.25 0-2.105.953-4.23 3.426-4.23 2.387 0 3.469 2.039 3.469 4.14m-8.676 10.004h1.847v-5.789h.04c.824 1.32 2.476 1.754 3.625 1.754 3.425 0 5.117-2.668 5.117-5.836s-1.711-5.902-5.16-5.902c-1.54 0-2.973.543-3.582 1.777h-.04v-1.52h-1.847"/></g><path fill="none" stroke="#EF3120" stroke-width=".223" d="M243.184 146.605c0 2.196-.848 4.344-3.36 4.344-2.543 0-3.535-2.039-3.535-4.254 0-2.105.95-4.23 3.426-4.23 2.387 0 3.469 2.039 3.469 4.14Zm0 0"/><g clip-path="url(#d)"><path fill="none" stroke="#EF3120" stroke-width=".223" d="M234.508 156.613h1.847v-5.793h.04c.824 1.32 2.476 1.754 3.624 1.754 3.426 0 5.118-2.668 5.118-5.836s-1.711-5.902-5.16-5.902c-1.543 0-2.973.543-3.583 1.777h-.039v-1.52h-1.847Zm0 0"/></g><path fill="#EE392A" d="M248.648 146.715c0-2.735 1.563-4.25 3.493-4.25s3.492 1.515 3.492 4.25c0 2.715-1.563 4.23-3.492 4.23s-3.493-1.515-3.493-4.23m-1.953 0c0 3.277 1.887 5.855 5.446 5.855s5.445-2.578 5.445-5.855c0-3.297-1.887-5.88-5.445-5.88s-5.446 2.583-5.446 5.88"/><path fill="none" stroke="#EF3120" stroke-width=".223" d="M248.648 146.715c0-2.735 1.563-4.25 3.493-4.25s3.496 1.515 3.496 4.25c0 2.715-1.567 4.234-3.496 4.234s-3.493-1.52-3.493-4.234Zm0 0"/><path fill="none" stroke="#EF3120" stroke-width=".223" d="M246.695 146.715c0 3.277 1.887 5.86 5.446 5.86s5.445-2.583 5.445-5.86c0-3.297-1.887-5.88-5.445-5.88s-5.446 2.583-5.446 5.88Zm0 0"/><path fill="#EE392A" d="M259.688 141.094h1.738v2.367h.043c.886-1.797 2.12-2.688 4.12-2.625v1.953c-2.972 0-4.058 1.691-4.058 4.531v4.993h-1.844"/><path fill="none" stroke="#EF3120" stroke-width=".223" d="M259.687 141.094h1.739v2.367h.043c.886-1.797 2.12-2.688 4.12-2.625v1.953c-2.972 0-4.058 1.691-4.058 4.531v4.993h-1.844Zm0 0"/><path fill="#EE392A" d="M269.535 141.094h2.235v1.629h-2.235v6.964c0 .848.238 1 1.39 1h.845v1.625h-1.41c-1.907 0-2.673-.39-2.673-2.449v-7.14h-1.906v-1.63h1.906v-3.359h1.848"/><path fill="none" stroke="#EF3120" stroke-width=".223" d="M269.535 141.094h2.234v1.633h-2.234v6.96c0 .848.238 1 1.39 1h.844v1.626h-1.41c-1.906 0-2.672-.387-2.672-2.45v-7.136h-1.906v-1.633h1.906v-3.36h1.848Zm0 0"/><path fill="#EE392A" d="M274.938 148.781c.062 1.645 1.496 2.164 3.015 2.164 1.149 0 2.711-.257 2.711-1.668 0-1.437-1.824-1.672-3.668-2.086-1.82-.41-3.664-1.015-3.664-3.168 0-2.253 2.234-3.187 4.184-3.187 2.472 0 4.449.777 4.601 3.516h-1.847c-.13-1.434-1.387-1.887-2.598-1.887-1.11 0-2.39.305-2.39 1.43 0 1.324 1.952 1.539 3.663 1.953 1.848.414 3.668 1.023 3.668 3.187 0 2.672-2.492 3.535-4.77 3.535-2.515 0-4.64-1.015-4.75-3.789"/><path fill="none" stroke="#EF3120" stroke-width=".223" d="M274.937 148.781c.063 1.645 1.497 2.168 3.016 2.168 1.149 0 2.711-.258 2.711-1.668 0-1.437-1.824-1.672-3.668-2.086-1.82-.41-3.664-1.02-3.664-3.172 0-2.253 2.234-3.187 4.187-3.187 2.473 0 4.446.781 4.598 3.516h-1.844c-.132-1.434-1.39-1.887-2.601-1.887-1.11 0-2.39.305-2.39 1.43 0 1.328 1.952 1.543 3.667 1.953 1.844.414 3.664 1.023 3.664 3.191 0 2.668-2.492 3.535-4.77 3.535-2.515 0-4.64-1.015-4.75-3.793Zm0 0"/><path fill="#EE392A" d="M293.055 122.477V1.168L17.797 11.852v98.84"/><path fill="#FFF" d="M122.96 105.781V95.77l-4.304 10.011h-2.035l-4.238-10.011v10.011h-3.985V89.316h5.41l3.993 9.555 4.164-9.555h4.976v16.465m3.696 0V89.316h3.375c.406 0 .633.266.633.649v15.816m12.023-9.379h5.23c.43 0 .657.34.657.746v8.403c-1.496.34-3.735.543-5.48.543-6.024 0-9.262-3.035-9.262-8.563 0-4.937 3.238-8.535 8.515-8.535 2.379 0 4.324.606 5.66 1.516l-1.515 2.629c-1.246-.59-2.606-.887-3.828-.887-3.215 0-4.665 2.176-4.665 5.277 0 3.29 1.676 5.367 4.891 5.367.563 0 1.383-.039 1.95-.132V99.55h-2.153m18.863 6.231-1.953-4.644c-.402-.93-.68-1.383-1.52-1.383h-1.937v6.027h-3.879V89.965c0-.336.317-.649.633-.649h5.594c3.176 0 5.89.649 5.89 4.711 0 1.828-.996 3.645-2.918 4.145.95.316 1.895 1.535 2.422 2.851l1.88 4.758Zm-3.238-13.41h-2.172v4.234h2.172c1.246 0 2.332-.703 2.332-2.261 0-1.7-.973-1.973-2.332-1.973m16.734 13.723c-5.28 0-7.925-3.934-7.925-8.582 0-4.621 2.87-8.516 8.148-8.516 5.027 0 7.77 3.781 7.77 8.402 0 4.645-3.06 8.696-7.993 8.696m.137-13.84c-2.289 0-3.851 1.68-3.851 5.258 0 3.597 1.582 5.324 3.914 5.324 2.015 0 3.582-1.727 3.582-5.324 0-3.578-1.567-5.258-3.645-5.258m16.305 13.84c-2.793 0-5.301-.992-6.457-1.785l1.746-3.106c1.039.633 3.144 1.606 5.027 1.606 1.172 0 2.516-.246 2.516-1.536 0-1.246-1.5-1.628-3.469-2.199-2.379-.68-5.14-1.695-5.14-4.707 0-3.332 2.968-5.37 6.84-5.37 2.624 0 4.66.925 5.702 1.925l-2.105 2.375c-1.129-.676-2.379-1.2-3.668-1.2-1.719 0-2.559.633-2.559 1.544 0 1.015.953 1.402 2.602 1.945 2.496.816 5.91 1.543 5.91 4.781 0 3.281-2.719 5.727-6.945 5.727"/><path fill="#231F20" d="M42.059 18.82v59.977h4.433v1.973h14.5V60.703h7.906l9.278-8.043V30.23L65.242 18.82Zm22.52 1.742c.265.239 8.163 7.301 8.554 7.649v21.367l-8.547 7.414H55.94v20.063H43.797V20.562"/><path fill="#231F20" d="M56.559 47.555h3.82V29.996h-3.82zm41.051 20.07h4.09v-37.61h-4.09z"/><path fill="#231F20" d="m91.7 18.84-8.966 8.61v42.8l8.965 8.547h2.008l2.07 1.973h15.645l8.46-8.207V30.237L107.118 18.84Zm14.75 1.742c.327.3 8.054 7.328 8.386 7.629v41.305c-.36.347-7.59 7.379-7.758 7.543H92.395c-.332-.32-7.563-7.215-7.918-7.551v-41.32c.355-.34 7.609-7.313 7.921-7.606m32.262-1.762v59.977h4.43v1.973h14.492v-1.973h2.977v1.973h14.039V57.172l-6.25-5.68 6.25-5.504V30.23L148.52 18.82Zm23.149 1.742c.336.329 7.41 7.282 7.757 7.618v14.738c-.394.344-6.855 6.027-6.855 6.027s6.473 5.852 6.855 6.2v21.91h-11.703v-23.61h-5.32v23.61h-12.14V20.562"/><path fill="#231F20" d="M139.164 44.016h4.082v-14.02h-4.082zM192.73 18.82h-29.89v12.297h4.433v1.988h2.72v45.692h4.429v1.973h14.89V33.105h6.715V21.93h-3.297Zm-1.738 1.742v8.813h-6.734v47.68h-12.52v-47.68h-7.16v-8.812"/><g clip-path="url(#e)"><path fill="#231F20" d="M291.934 34.824v32.328c-4.766-8.91-8.657-16.191-8.704-16.28.06-.102 4.204-7.747 8.704-16.048m2.242 36.524V30.69l9.062-16.707h-5.883l1.524-2.8h-4.703V.004l-277.5 10.773v7.817H9.457L.535 27.277v18.88l12.227 10.429 3.914.328v1.606H.117v11.777l11.367 10.465h5.192v31.004l277.5 11.882V99.727h15.176s-8.024-15-15.176-28.38m-2.242 49.958c-2.309-.094-270.895-11.594-273.016-11.688V80.762h9.488l8.922-8.278V52.422L25.742 42.55l-6.305-.567V38.96h2.18v1.875h14.86V28.668L25.738 18.594h-6.82v-5.66L291.934 2.336v8.848h-21.532l-4.906 14.492c-1.965-5.297-4.332-11.692-4.332-11.692h-3.555c-.62-1.687-1.035-2.8-1.035-2.8h-28.027s1.652 3.046 4.016 7.386h-7.125s-2.461 8.387-3.657 12.473l-2.96-9.215h-1.395c-.61-1.894-1.043-3.258-1.043-3.258h-19.535s12.726 28.875 12.925 29.317l-13.617 31.047h4.64l-.933 2.125h18.254l4.516-12.852 3.41 10.727h2.566l.676 2.125h.813c-6.637 11.656-12.493 21.945-12.493 21.945l6.493.031c-.828 1.453-1.297 2.285-1.297 2.285l30.015.14 13.786-31.737L277 97.418h3.91a556 556 0 0 0 1.012 2.309h10.012Zm-50.512-86.45c3.906 7.18 7.21 13.258 7.312 13.45-.09.16-3.84 6.758-8.714 15.316l-5.637-13.047ZM25.043 20.335c.34.321 7.691 7.337 8.05 7.68v9.208H20.599v-7.989H15.21v14.114s9.441.855 9.82.886c.282.25 8.528 7.383 8.926 7.727v17.57c-.36.336-7.754 7.192-8.082 7.492H10.051c-.332-.304-7.82-7.152-8.196-7.492v-9.27h13.356v7.985h5.387V53.813s-8.942-.77-9.325-.805a8104 8104 0 0 1-8.996-7.66V28.012c.352-.34 7.551-7.356 7.887-7.676Zm207.809-.026c.32.593 5.058 9.386 5.324 9.882-.242.536-7.93 17.688-7.93 17.688s7.524 17.383 7.766 17.93c-.29.504-6.164 10.808-6.492 11.386h-4.204c-.261-.816-4.882-15.379-4.882-15.379h-2.618s-5.109 14.594-5.382 15.38h-15.61l12.852-29.313-12.156-27.574h15.593c.258.812 4.676 14.628 4.676 14.628h2.66l4.29-14.628Zm63.34-7.528-19.27 35.524s24.469 45.761 25.402 47.515h-24.277c-.32-.718-12.879-29.347-12.879-29.347h-2.77l-15.253 35.078c-.758-.008-24.946-.125-26.797-.133l30.218-53.098s-18.386-33.8-19.328-35.539h24.219c.29.774 6.895 18.64 6.895 18.64h2.886l6.313-18.64"/></g><path fill="#FFF" d="M56.559 47.555h3.82V29.996h-3.82Zm41.05 20.07h4.086v-37.61H97.61Zm41.555-23.61h4.082V29.997h-4.082ZM25.043 20.333l8.05 7.684v9.203H20.599v-7.985H15.21v14.11l9.82.89 8.926 7.727v17.57c-.36.336-7.754 7.188-8.082 7.489H10.051c-.309-.278-7.82-7.149-8.196-7.493v-9.265h13.356v7.984h5.387V53.813s-8.946-.77-9.325-.805c-.285-.242-8.605-7.324-8.996-7.66V28.012c.352-.344 7.551-7.356 7.887-7.68Zm39.531.23c.332.29 8.188 7.32 8.555 7.653v21.363c-.367.32-8.215 7.133-8.543 7.414H55.94V77.06H43.797V20.563Zm41.871.02c.332.3 8.012 7.285 8.39 7.629v41.305c-.35.343-7.444 7.238-7.757 7.543H92.391c-.332-.32-7.559-7.215-7.914-7.551V28.19c.351-.34 7.597-7.3 7.921-7.609Zm41.36-.02c.34.329 7.418 7.282 7.761 7.618v14.738c-.394.344-6.855 6.027-6.855 6.027l6.855 6.203v21.91h-11.703V53.446h-5.32V77.06h-12.14V20.563Zm43.187 0v8.817h-6.734v47.68h-12.52V29.38h-7.16v-8.817Zm41.863-.253c.317.593 5.055 9.386 5.32 9.878l-7.929 17.688s7.531 17.383 7.766 17.934c-.285.5-6.164 10.808-6.489 11.382h-4.207c-.261-.812-4.882-15.375-4.882-15.375h-2.618s-5.109 14.59-5.382 15.375h-15.61l12.852-29.308L199.52 20.31h15.593l4.676 14.628h2.66s4.047-13.796 4.293-14.628Zm63.336-7.528-19.27 35.52s24.47 45.765 25.403 47.52h-24.277L265.168 66.47l-2.766.004-15.254 35.074c-.761-.008-24.949-.121-26.8-.133 1.015-1.773 30.222-53.094 30.222-53.094s-18.39-33.804-19.332-35.539h24.219c.293.774 6.898 18.64 6.898 18.64h2.883l6.313-18.64"/></svg>