<svg xmlns="http://www.w3.org/2000/svg" width="145.907" height="27.433" viewBox="2.658 0.06 145.907 27.433"><path fill="#812990" fill-rule="evenodd" d="M136.129 24.637h8.375c.66 0 1.2-.54 1.2-1.2V20.45a1.2 1.2 0 0 0-1.2-1.199h-8.375a1.2 1.2 0 0 0-1.2 1.2v2.988c.005.66.54 1.199 1.2 1.199"/><path fill="#0066B3" fill-rule="evenodd" d="M109.203 24.637h19.145a1.2 1.2 0 0 0 1.199-1.2V20.45c0-.664-.535-1.199-1.2-1.199h-19.144c-.66 0-1.195.535-1.195 1.2v2.988c0 .66.535 1.199 1.195 1.199"/><path fill="#33A3DC" fill-rule="evenodd" d="M93.047 24.637h8.375a1.2 1.2 0 0 0 1.2-1.2V20.45c0-.664-.536-1.199-1.2-1.199h-8.375c-.66 0-1.195.535-1.195 1.2v2.988c0 .66.535 1.199 1.195 1.199"/><path fill="#45B97C" fill-rule="evenodd" d="M66.121 24.637H85.27a1.2 1.2 0 0 0 1.195-1.2V20.45c0-.664-.535-1.199-1.195-1.199H66.12c-.66 0-1.195.535-1.195 1.2v2.988c0 .66.535 1.199 1.195 1.199"/><path fill="#FFCC31" fill-rule="evenodd" d="M49.969 24.637h8.375a1.2 1.2 0 0 0 1.195-1.2V20.45c0-.664-.535-1.199-1.195-1.199h-8.375c-.664 0-1.2.535-1.2 1.2v2.988a1.2 1.2 0 0 0 1.2 1.199"/><path fill="#ED1846" fill-rule="evenodd" d="M6.887 24.637h8.375a1.2 1.2 0 0 0 1.195-1.2V20.45c0-.664-.535-1.199-1.195-1.199H6.887c-.664 0-1.2.535-1.2 1.2v2.988c0 .66.54 1.199 1.2 1.199"/><path fill="#F68C47" fill-rule="evenodd" d="M23.043 24.637h19.145c.66 0 1.199-.54 1.199-1.2V20.45a1.2 1.2 0 0 0-1.2-1.199H23.044c-.664 0-1.2.535-1.2 1.2v2.988a1.2 1.2 0 0 0 1.2 1.199"/><path fill="#ED1846" fill-rule="evenodd" d="M85.086 3.086h-4.398a.327.327 0 0 0-.329.324v9.242c0 .664.547 1.203 1.227 1.203h1.445a.324.324 0 0 0 .328-.324v-2.656h1.727c2.633 0 3.906-1.828 3.906-3.91 0-2.043-1.508-3.88-3.906-3.88m-.602 5.294H83.36v-2.82h1.176c.887 0 1.39.539 1.39 1.394 0 .86-.503 1.426-1.44 1.426m28.846 3h-.2V3.41a.33.33 0 0 0-.331-.324h-6.399c-.68 0-1.23.543-1.23 1.21v1.575c0 1.816-.027 3.84-1 5.508h-.164c-.64 0-1.16.508-1.16 1.137v2.793c0 .18.148.324.332.324h2.02a.33.33 0 0 0 .331-.324v-1.457h6.278v1.457c0 .18.144.324.328.324h2.023c.18 0 .328-.145.328-.324v-2.793a1.14 1.14 0 0 0-1.156-1.137m-3.184.016h-2.957c.704-1.528.832-3.63.832-5.293v-.543h1.758c.25 0 .367.117.367.363Zm15.274-8.309h-1.774c-.824 0-1.16.23-1.41.957l-1.402 3.668-1.621-3.668c-.32-.711-.606-.957-1.41-.957h-1.899a.323.323 0 0 0-.289.477l3.801 7.035c-.133.41-.527.722-1 .722-.277 0-.559-.093-.836-.273a.327.327 0 0 0-.457.105l-.977 1.618c-.082.136-.062.316.067.41.64.484 1.672.812 2.672.812.89 0 1.593-.23 2.097-.707.52-.48.922-1.074 1.239-1.797l3.5-7.953a.322.322 0 0 0-.301-.45m8.668.001h-5.66c-.684 0-1.235.543-1.235 1.21v9.235c0 .18.149.324.332.324h2.34a.33.33 0 0 0 .332-.324V5.56h3.89a.33.33 0 0 0 .333-.325V3.41a.33.33 0 0 0-.332-.324m11.281 0h-1.984a1.23 1.23 0 0 0-1.059.59l-3.367 5.246V4.289c0-.664-.547-1.203-1.223-1.203h-1.449a.327.327 0 0 0-.328.324v10.121c0 .18.148.324.328.324h2.004c.434 0 .84-.226 1.059-.597l3.351-5.27v4.664c0 .664.547 1.203 1.223 1.203h1.449c.18 0 .328-.144.328-.324V3.411a.33.33 0 0 0-.332-.325m-120.242 0h-6.555c-.68 0-1.23.543-1.23 1.21v2.665c0 3.11-.203 4.008-1.668 4.375-.156.035-.274.156-.274.312v2.016c0 .184.16.34.348.328 3.242-.156 4.43-1.582 4.43-7V5.56h1.91c.203 0 .367.164.367.363v7.61c0 .179.148.323.328.323l2.344.004a.33.33 0 0 0 .332-.324V3.41a.33.33 0 0 0-.332-.324m15.402 0h-2.343a.327.327 0 0 0-.329.324v10.117c0 .184.149.328.328.328h2.344c.18 0 .328-.144.328-.328V3.41a.327.327 0 0 0-.328-.324m7.274 3.973h-1.356v-1.5h4.43a.33.33 0 0 0 .332-.325V3.41a.33.33 0 0 0-.332-.324h-7.102a.33.33 0 0 0-.332.324v9.238c0 .668.547 1.207 1.227 1.207h3.101c3.215 0 4.559-1.546 4.559-3.492 0-2.175-1.648-3.304-4.527-3.304m.254 4.406h-1.243c-.25 0-.367-.117-.367-.363V9.46h1.625c.754 0 1.172.406 1.172.988s-.434 1.016-1.187 1.016M32.21 6.602H31V3.41a.327.327 0 0 0-.328-.324h-2.344a.33.33 0 0 0-.332.324v9.238c0 .668.55 1.207 1.227 1.207h2.953c3.219 0 4.562-1.652 4.562-3.726-.004-2.324-1.652-3.527-4.527-3.527m.25 4.863h-1.094c-.25 0-.367-.14-.367-.445V9.012h1.477c.753 0 1.175.5 1.175 1.21 0 .712-.437 1.243-1.191 1.243m-17.09-8.379h-1.773c-.82 0-1.157.23-1.41.957l-1.403 3.668-1.62-3.668c-.321-.711-.606-.957-1.411-.957H5.859c-.25 0-.41.262-.293.477l3.801 7.035c-.133.41-.527.722-1 .722q-.41 0-.828-.27a.326.326 0 0 0-.46.098l-.981 1.622a.32.32 0 0 0 .078.418c.636.476 1.664.804 2.664.804.887 0 1.594-.23 2.094-.707.52-.48.921-1.074 1.242-1.797l3.5-7.953a.325.325 0 0 0-.305-.45m59.246.001h-2.332a.333.333 0 0 0-.336.336v.648c-.761-.703-1.812-1.125-3.187-1.125-2.688 0-4.867 2.473-4.867 5.524 0 3.05 2.18 5.523 4.867 5.523 1.406 0 2.476-.449 3.25-1.195.168.504.707 1.058 1.437 1.058h1.168a.335.335 0 0 0 .332-.335V3.422a.333.333 0 0 0-.332-.336m-5.144 8.281c-1.59 0-2.567-1.3-2.567-2.906 0-1.61 1.047-2.914 2.567-2.914 1.613 0 2.566 1.305 2.566 2.914 0 1.605-.883 2.906-2.566 2.906m-8.067-1.988c-.437-.813-1.093-.992-1.207-1.02.114-.027.77-.207 1.207-1.02l1.914-3.788a.322.322 0 0 0-.297-.465h-2.527a.33.33 0 0 0-.3.187l-1.688 3.489c-.184.363-.504.363-.922.363h-.402V4.289c0-.664-.547-1.203-1.227-1.203h-1.445a.324.324 0 0 0-.328.324v10.121c0 .18.144.324.328.324h2.34a.33.33 0 0 0 .332-.324V9.594h.402c.418 0 .738 0 .922.36l1.804 3.71a.34.34 0 0 0 .301.191h2.528a.325.325 0 0 0 .297-.468Zm39.5-6.293H98.57a.333.333 0 0 0-.332.336v.648c-.761-.703-1.812-1.125-3.187-1.125-2.688 0-4.867 2.473-4.867 5.524 0 3.05 2.18 5.523 4.867 5.523 1.402 0 2.476-.449 3.246-1.195.168.504.71 1.058 1.441 1.058h1.164a.336.336 0 0 0 .336-.335V3.422a.333.333 0 0 0-.332-.336m-5.144 8.281c-1.59 0-2.567-1.3-2.567-2.906 0-1.61 1.047-2.914 2.567-2.914 1.613 0 2.562 1.305 2.562 2.914 0 1.605-.879 2.906-2.562 2.906"/></svg>